<?xml version="1.0" encoding="UTF-8"?>
<svg xmlns="http://www.w3.org/2000/svg" xmlns:xlink="http://www.w3.org/1999/xlink" width="32px" height="32px" viewBox="0 0 32 32" version="1.1">
<defs>
<filter id="alpha" filterUnits="objectBoundingBox" x="0%" y="0%" width="100%" height="100%">
  <feColorMatrix type="matrix" in="SourceGraphic" values="0 0 0 0 1 0 0 0 0 1 0 0 0 0 1 0 0 0 1 0"/>
</filter>
<mask id="mask0">
  <g filter="url(#alpha)">
<rect x="0" y="0" width="32" height="32" style="fill:rgb(0%,0%,0%);fill-opacity:0.34902;stroke:none;"/>
  </g>
</mask>
<clipPath id="clip1">
  <rect x="0" y="0" width="32" height="32"/>
</clipPath>
<g id="surface5" clip-path="url(#clip1)">
<path style=" stroke:none;fill-rule:nonzero;fill:rgb(0%,0%,0%);fill-opacity:1;" d="M 26.601562 6.578125 L 25.308594 10.480469 C 24.117188 14.066406 20.761719 16.484375 16.976562 16.484375 L 8.808594 16.484375 L 9.238281 18.386719 L 26.175781 18.386719 L 30.09375 6.578125 Z M 26.601562 6.578125 "/>
</g>
</defs>
<g id="surface1">
<path style=" stroke:none;fill-rule:nonzero;fill:rgb(7.843137%,16.470588%,23.137255%);fill-opacity:1;" d="M 12.175781 25.585938 L 9.496094 25.585938 C 8.980469 25.585938 8.558594 25.902344 8.558594 26.292969 C 8.558594 26.683594 8.980469 27 9.496094 27 L 9.621094 27 C 10.136719 27 10.558594 27.316406 10.558594 27.707031 C 10.558594 28.097656 10.136719 28.414062 9.621094 28.414062 L 3.855469 28.414062 C 3.339844 28.414062 2.917969 28.734375 2.917969 29.121094 C 2.917969 29.511719 3.339844 29.832031 3.855469 29.832031 L 24.945312 29.832031 C 25.460938 29.832031 25.878906 29.511719 25.878906 29.121094 C 25.878906 28.734375 25.460938 28.414062 24.945312 28.414062 L 23.34375 28.414062 C 22.828125 28.414062 22.40625 28.097656 22.40625 27.707031 C 22.40625 27.316406 22.828125 27 23.34375 27 L 29.628906 27 C 30.144531 27 30.566406 26.683594 30.566406 26.292969 C 30.566406 25.902344 30.144531 25.585938 29.628906 25.585938 Z M 12.175781 25.585938 "/>
<path style=" stroke:none;fill-rule:nonzero;fill:rgb(7.843137%,16.470588%,23.137255%);fill-opacity:1;" d="M 28.808594 30.019531 C 28.375 30.019531 28.023438 29.679688 28.023438 29.261719 C 28.023438 28.84375 28.375 28.503906 28.808594 28.503906 L 31.214844 28.503906 C 31.648438 28.503906 32 28.84375 32 29.261719 C 32 29.679688 31.648438 30.019531 31.214844 30.019531 Z M 28.808594 30.019531 "/>
<path style=" stroke:none;fill-rule:nonzero;fill:rgb(100%,22.745098%,18.431373%);fill-opacity:1;" d="M 19.875 24.40625 C 19.875 25.496094 20.75 26.375 21.832031 26.375 C 22.914062 26.375 23.792969 25.496094 23.792969 24.40625 C 23.792969 23.320312 22.914062 22.441406 21.832031 22.441406 C 20.75 22.441406 19.875 23.320312 19.875 24.40625 Z M 19.875 24.40625 "/>
<path style=" stroke:none;fill-rule:nonzero;fill:rgb(100%,22.745098%,18.431373%);fill-opacity:1;" d="M 9.800781 24.40625 C 9.800781 25.496094 10.675781 26.375 11.757812 26.375 C 12.839844 26.375 13.71875 25.496094 13.71875 24.40625 C 13.71875 23.320312 12.839844 22.441406 11.757812 22.441406 C 10.675781 22.441406 9.800781 23.320312 9.800781 24.40625 Z M 9.800781 24.40625 "/>
<path style=" stroke:none;fill-rule:nonzero;fill:rgb(4.705882%,69.019608%,29.019608%);fill-opacity:1;" d="M 9.238281 18.386719 L 26.175781 18.386719 L 30.09375 6.578125 L 6.585938 6.578125 "/>
<use xlink:href="#surface5" mask="url(#mask0)"/>
<path style=" stroke:none;fill-rule:nonzero;fill:rgb(7.843137%,16.470588%,23.137255%);fill-opacity:1;" d="M 24.21875 21.546875 L 9.4375 21.546875 L 4.691406 3.046875 L 0.535156 3.046875 C 0.238281 3.046875 0 2.808594 0 2.511719 C 0 2.21875 0.238281 1.980469 0.535156 1.980469 L 5.519531 1.980469 L 10.265625 20.480469 L 24.21875 20.480469 C 24.511719 20.480469 24.75 20.71875 24.75 21.011719 C 24.75 21.308594 24.511719 21.546875 24.21875 21.546875 Z M 24.21875 21.546875 "/>
</g>
</svg>
